<?xml version="1.0" standalone="no"?>
<!DOCTYPE svg PUBLIC "-//W3C//DTD SVG 20010904//EN"
 "http://www.w3.org/TR/2001/REC-SVG-20010904/DTD/svg10.dtd">
<svg version="1.0" xmlns="http://www.w3.org/2000/svg"
 width="300.000000pt" height="292.000000pt" viewBox="0 0 300.000000 292.000000"
 preserveAspectRatio="xMidYMid meet">

<g transform="translate(0.000000,292.000000) scale(0.100000,-0.100000)"
fill="#000000" stroke="none">
<path d="M1352 2910 c-354 -37 -654 -181 -908 -434 -221 -222 -349 -459 -416
-770 -31 -147 -31 -427 1 -576 65 -308 193 -544 415 -766 135 -134 261 -224
419 -299 135 -64 155 -66 195 -21 l32 37 0 162 0 162 -133 0 c-130 0 -134 1
-199 33 -80 39 -114 78 -171 192 -41 83 -95 148 -166 201 -49 36 -38 59 30 59
71 0 111 -22 177 -98 117 -134 156 -170 197 -181 57 -16 163 -14 223 4 45 14
52 20 61 51 13 48 56 119 87 143 l25 20 -38 6 c-274 43 -407 98 -528 220 -131
130 -183 271 -192 515 -7 208 17 297 117 430 38 51 40 58 33 95 -4 22 -8 94
-8 160 1 150 23 228 67 233 66 8 258 -65 365 -139 l46 -32 71 17 c123 29 320
41 479 28 78 -7 160 -17 182 -23 38 -9 44 -7 120 36 119 67 221 107 292 113
l63 5 15 -36 c29 -69 39 -169 27 -273 l-11 -96 48 -63 c115 -150 155 -318 132
-550 -35 -351 -173 -521 -484 -600 -54 -13 -127 -28 -163 -31 -35 -4 -67 -10
-69 -15 -3 -4 7 -16 23 -27 40 -29 79 -107 91 -182 6 -36 11 -171 11 -300 0
-211 2 -238 18 -263 36 -54 50 -58 117 -32 474 178 835 616 931 1130 25 134
26 402 1 530 -43 222 -146 459 -271 625 -231 307 -583 524 -946 584 -122 20
-302 27 -408 16z"/>
</g>
</svg>
