<?xml version="1.0" standalone="no"?>
<!DOCTYPE svg PUBLIC "-//W3C//DTD SVG 20010904//EN"
 "http://www.w3.org/TR/2001/REC-SVG-20010904/DTD/svg10.dtd">
<svg version="1.0" xmlns="http://www.w3.org/2000/svg"
 width="360.000000pt" height="360.000000pt" viewBox="0 0 360.000000 360.000000"
 preserveAspectRatio="xMidYMid meet">

<g transform="translate(0.000000,360.000000) scale(0.100000,-0.100000)"
fill="#000000" stroke="none">
<path d="M1720 2908 c-69 -53 -249 -202 -405 -337 l-120 -104 -3 112 -3 111
-169 0 -170 0 0 -264 0 -263 -195 -173 c-107 -95 -197 -181 -200 -191 -11 -34
28 -79 69 -79 9 0 118 89 244 198 192 166 548 474 945 814 l89 78 62 -54 c407
-353 1142 -984 1180 -1014 36 -27 60 -28 86 -2 37 37 26 63 -62 143 -70 62
-296 262 -403 356 -16 14 -86 76 -155 136 -69 61 -155 135 -190 165 -36 30
-83 71 -105 91 -203 180 -385 319 -416 319 -13 0 -49 -19 -79 -42z"/>
<path d="M1649 2558 c-217 -183 -788 -660 -830 -693 l-38 -30 0 -585 c-1 -352
3 -591 9 -600 8 -13 64 -15 400 -15 376 0 392 1 406 19 11 16 14 74 14 303 l0
283 195 0 195 0 0 -295 c0 -276 1 -295 18 -304 23 -12 747 -12 780 0 l22 8 0
593 0 593 -497 414 c-273 228 -506 416 -518 418 -16 4 -56 -25 -156 -109z"/>
</g>
</svg>
